<svg xmlns="http://www.w3.org/2000/svg" width="1280" height="2674" viewBox="0 0 1280 2674" role="img" aria-labelledby="title description" font-family="Arial, Microsoft YaHei, sans-serif"><title id="title">AI 对话与开发入口 · 完整规则</title><desc id="description">29 条规则；编号对应实际首匹配顺序；大括号只表示结构包含。从左向右的大括号表示整体与局部的包含关系。</desc><rect x="0" y="0" width="1280" height="2674" fill="#ffffff" /><text x="28" y="32" fill="#172033" font-size="23" font-weight="600">AI 对话与开发入口 · 完整规则</text><text x="28" y="58" fill="#475569" font-size="14" font-weight="400">29 条规则；编号对应实际首匹配顺序；大括号只表示结构包含</text><text x="28" y="91" fill="#64748b" font-size="13" font-weight="400">整体</text><text x="208" y="91" fill="#64748b" font-size="13" font-weight="400">分类 / 服务组</text><text x="458" y="91" fill="#64748b" font-size="13" font-weight="400">结构拆解</text><text x="644" y="91" fill="#64748b" font-size="13" font-weight="400">完整规则 / 设计理由</text><g data-depth="0"><text x="28" y="1380.0" fill="#2563eb" font-size="17" font-weight="600">AI 对话与开发入口</text><path d="M 198 114.0 Q 187 114.0 187 126.0 L 187 1368.0 Q 187 1380.0 180 1380.0 Q 187 1380.0 187 1392.0 L 187 2634.0 Q 187 2646.0 198 2646.0" fill="none" stroke="#2563eb" stroke-width="1.8" data-brace="true" /><g data-depth="1"><text x="208" y="375.0" fill="#2563eb" font-size="17" font-weight="600">AI ChatGPT Codex</text><text x="208" y="397.0" fill="#475569" font-size="15" font-weight="400">primary 优先</text><text x="208" y="419.0" fill="#475569" font-size="15" font-weight="400">bulk 合格备用</text><text x="208" y="441.0" fill="#475569" font-size="15" font-weight="400">已验收；倍率 ≤ 1</text><text x="208" y="463.0" fill="#475569" font-size="15" font-weight="400">自动 fallback</text><path d="M 444 114.0 Q 433 114.0 433 126.0 L 433 407.0 Q 433 419.0 426 419.0 Q 433 419.0 433 431.0 L 433 712.0 Q 433 724.0 444 724.0" fill="none" stroke="#2563eb" stroke-width="1.8" data-brace="true" /><g data-depth="2"><text x="458" y="129.0" fill="#2563eb" font-size="17" font-weight="600">设计理由</text><path d="M 630 114.0 Q 619 114.0 619 120.0 L 619 123.0 Q 619 129.0 612 129.0 Q 619 129.0 619 135.0 L 619 138.0 Q 619 144.0 630 144.0" fill="none" stroke="#2563eb" stroke-width="1.8" data-brace="true" /><g data-depth="3"><text x="644" y="129.0" fill="#172033" font-size="15" font-weight="600">对话、Codex 与专属资源统一验收；实时会话、登录与上传另测。</text></g></g><g data-depth="2"><text x="458" y="169.0" fill="#2563eb" font-size="17" font-weight="600">精确域名 · 1 条</text><text x="458" y="191.0" fill="#475569" font-size="15" font-weight="400">DOMAIN</text><path d="M 630 154.0 Q 619 154.0 619 164.4 L 619 169.6 Q 619 180.0 612 180.0 Q 619 180.0 619 190.4 L 619 195.6 Q 619 206.0 630 206.0" fill="none" stroke="#2563eb" stroke-width="1.8" data-brace="true" /><g data-depth="3" data-rule-index="34" data-rule="DOMAIN,cdn.openaimerge.com,AI ChatGPT Codex"><title>DOMAIN,cdn.openaimerge.com,AI ChatGPT Codex</title><text x="644" y="169.0" fill="#172033" font-size="15" font-weight="600">#034 cdn.openaimerge.com</text><text x="644" y="191.0" fill="#475569" font-size="15" font-weight="400">理由：仅匹配此主机，位于普通父域之前。</text></g></g><g data-depth="2"><text x="458" y="417.0" fill="#2563eb" font-size="17" font-weight="600">域名后缀 · 7 条</text><text x="458" y="439.0" fill="#475569" font-size="15" font-weight="400">DOMAIN-SUFFIX</text><path d="M 630 216.0 Q 619 216.0 619 228.0 L 619 416.0 Q 619 428.0 612 428.0 Q 619 428.0 619 440.0 L 619 628.0 Q 619 640.0 630 640.0" fill="none" stroke="#2563eb" stroke-width="1.8" data-brace="true" /><g data-depth="3" data-rule-index="35" data-rule="DOMAIN-SUFFIX,chatgpt.com,AI ChatGPT Codex"><title>DOMAIN-SUFFIX,chatgpt.com,AI ChatGPT Codex</title><text x="644" y="231.0" fill="#172033" font-size="15" font-weight="600">#035 chatgpt.com</text><text x="644" y="253.0" fill="#475569" font-size="15" font-weight="400">理由：匹配本域与子域；精确例外先匹配。</text></g><g data-depth="3" data-rule-index="36" data-rule="DOMAIN-SUFFIX,chatgpt.livekit.cloud,AI ChatGPT Codex"><title>DOMAIN-SUFFIX,chatgpt.livekit.cloud,AI ChatGPT Codex</title><text x="644" y="293.0" fill="#172033" font-size="15" font-weight="600">#036 chatgpt.livekit.cloud</text><text x="644" y="315.0" fill="#475569" font-size="15" font-weight="400">理由：匹配本域与子域；精确例外先匹配。</text></g><g data-depth="3" data-rule-index="37" data-rule="DOMAIN-SUFFIX,oaistatic.com,AI ChatGPT Codex"><title>DOMAIN-SUFFIX,oaistatic.com,AI ChatGPT Codex</title><text x="644" y="355.0" fill="#172033" font-size="15" font-weight="600">#037 oaistatic.com</text><text x="644" y="377.0" fill="#475569" font-size="15" font-weight="400">理由：匹配本域与子域；精确例外先匹配。</text></g><g data-depth="3" data-rule-index="38" data-rule="DOMAIN-SUFFIX,oaiusercontent.com,AI ChatGPT Codex"><title>DOMAIN-SUFFIX,oaiusercontent.com,AI ChatGPT Codex</title><text x="644" y="417.0" fill="#172033" font-size="15" font-weight="600">#038 oaiusercontent.com</text><text x="644" y="439.0" fill="#475569" font-size="15" font-weight="400">理由：匹配本域与子域；精确例外先匹配。</text></g><g data-depth="3" data-rule-index="39" data-rule="DOMAIN-SUFFIX,openaiusercontent.com,AI ChatGPT Codex"><title>DOMAIN-SUFFIX,openaiusercontent.com,AI ChatGPT Codex</title><text x="644" y="479.0" fill="#172033" font-size="15" font-weight="600">#039 openaiusercontent.com</text><text x="644" y="501.0" fill="#475569" font-size="15" font-weight="400">理由：匹配本域与子域；精确例外先匹配。</text></g><g data-depth="3" data-rule-index="40" data-rule="DOMAIN-SUFFIX,oaistatsig.com,AI ChatGPT Codex"><title>DOMAIN-SUFFIX,oaistatsig.com,AI ChatGPT Codex</title><text x="644" y="541.0" fill="#172033" font-size="15" font-weight="600">#040 oaistatsig.com</text><text x="644" y="563.0" fill="#475569" font-size="15" font-weight="400">理由：匹配本域与子域；精确例外先匹配。</text></g><g data-depth="3" data-rule-index="41" data-rule="DOMAIN-SUFFIX,sora.com,AI ChatGPT Codex"><title>DOMAIN-SUFFIX,sora.com,AI ChatGPT Codex</title><text x="644" y="603.0" fill="#172033" font-size="15" font-weight="600">#041 sora.com</text><text x="644" y="625.0" fill="#475569" font-size="15" font-weight="400">理由：匹配本域与子域；精确例外先匹配。</text></g></g><g data-depth="2"><text x="458" y="687.0" fill="#2563eb" font-size="17" font-weight="600">检查与资格</text><path d="M 630 650.0 Q 619 650.0 619 662.0 L 619 675.0 Q 619 687.0 612 687.0 Q 619 687.0 619 699.0 L 619 712.0 Q 619 724.0 630 724.0" fill="none" stroke="#2563eb" stroke-width="1.8" data-brace="true" /><g data-depth="3"><text x="644" y="665.0" fill="#172033" font-size="15" font-weight="600">HEAD 预期 200；每 60 秒</text><text x="644" y="687.0" fill="#475569" font-size="15" font-weight="400">https://chatgpt.com/robots.txt</text><text x="644" y="709.0" fill="#475569" font-size="15" font-weight="400">匿名检查与已登录业务分别验收。</text></g></g></g><g data-depth="1"><text x="208" y="778.0" fill="#2563eb" font-size="17" font-weight="600">AI OpenAI API</text><text x="208" y="800.0" fill="#475569" font-size="15" font-weight="400">primary 优先</text><text x="208" y="822.0" fill="#475569" font-size="15" font-weight="400">bulk 合格备用</text><text x="208" y="844.0" fill="#475569" font-size="15" font-weight="400">已验收；倍率 ≤ 1</text><text x="208" y="866.0" fill="#475569" font-size="15" font-weight="400">自动 fallback</text><path d="M 444 734.0 Q 433 734.0 433 746.0 L 433 810.0 Q 433 822.0 426 822.0 Q 433 822.0 433 834.0 L 433 898.0 Q 433 910.0 444 910.0" fill="none" stroke="#2563eb" stroke-width="1.8" data-brace="true" /><g data-depth="2"><text x="458" y="749.0" fill="#2563eb" font-size="17" font-weight="600">设计理由</text><path d="M 630 734.0 Q 619 734.0 619 740.0 L 619 743.0 Q 619 749.0 612 749.0 Q 619 749.0 619 755.0 L 619 758.0 Q 619 764.0 630 764.0" fill="none" stroke="#2563eb" stroke-width="1.8" data-brace="true" /><g data-depth="3"><text x="644" y="749.0" fill="#172033" font-size="15" font-weight="600">API 独立于 ChatGPT 网页；匿名 401 不等于实际推理成功。</text></g></g><g data-depth="2"><text x="458" y="789.0" fill="#2563eb" font-size="17" font-weight="600">域名后缀 · 1 条</text><text x="458" y="811.0" fill="#475569" font-size="15" font-weight="400">DOMAIN-SUFFIX</text><path d="M 630 774.0 Q 619 774.0 619 784.4 L 619 789.6 Q 619 800.0 612 800.0 Q 619 800.0 619 810.4 L 619 815.6 Q 619 826.0 630 826.0" fill="none" stroke="#2563eb" stroke-width="1.8" data-brace="true" /><g data-depth="3" data-rule-index="42" data-rule="DOMAIN-SUFFIX,openai.com,AI OpenAI API"><title>DOMAIN-SUFFIX,openai.com,AI OpenAI API</title><text x="644" y="789.0" fill="#172033" font-size="15" font-weight="600">#042 openai.com</text><text x="644" y="811.0" fill="#475569" font-size="15" font-weight="400">理由：匹配本域与子域；精确例外先匹配。</text></g></g><g data-depth="2"><text x="458" y="873.0" fill="#2563eb" font-size="17" font-weight="600">检查与资格</text><path d="M 630 836.0 Q 619 836.0 619 848.0 L 619 861.0 Q 619 873.0 612 873.0 Q 619 873.0 619 885.0 L 619 898.0 Q 619 910.0 630 910.0" fill="none" stroke="#2563eb" stroke-width="1.8" data-brace="true" /><g data-depth="3"><text x="644" y="851.0" fill="#172033" font-size="15" font-weight="600">HEAD 预期 401；每 60 秒</text><text x="644" y="873.0" fill="#475569" font-size="15" font-weight="400">https://api.openai.com/v1/models</text><text x="644" y="895.0" fill="#475569" font-size="15" font-weight="400">匿名检查与已登录业务分别验收。</text></g></g></g><g data-depth="1"><text x="208" y="1057.0" fill="#2563eb" font-size="17" font-weight="600">AI Claude</text><text x="208" y="1079.0" fill="#475569" font-size="15" font-weight="400">primary 优先</text><text x="208" y="1101.0" fill="#475569" font-size="15" font-weight="400">bulk 合格备用</text><text x="208" y="1123.0" fill="#475569" font-size="15" font-weight="400">已验收；倍率 ≤ 1</text><text x="208" y="1145.0" fill="#475569" font-size="15" font-weight="400">自动 fallback</text><path d="M 444 920.0 Q 433 920.0 433 932.0 L 433 1089.0 Q 433 1101.0 426 1101.0 Q 433 1101.0 433 1113.0 L 433 1270.0 Q 433 1282.0 444 1282.0" fill="none" stroke="#2563eb" stroke-width="1.8" data-brace="true" /><g data-depth="2"><text x="458" y="935.0" fill="#2563eb" font-size="17" font-weight="600">设计理由</text><path d="M 630 920.0 Q 619 920.0 619 926.0 L 619 929.0 Q 619 935.0 612 935.0 Q 619 935.0 619 941.0 L 619 944.0 Q 619 950.0 630 950.0" fill="none" stroke="#2563eb" stroke-width="1.8" data-brace="true" /><g data-depth="3"><text x="644" y="935.0" fill="#172033" font-size="15" font-weight="600">Claude、Anthropic API 与用户资源同组；405 与生成分别判断。</text></g></g><g data-depth="2"><text x="458" y="1068.0" fill="#2563eb" font-size="17" font-weight="600">域名后缀 · 4 条</text><text x="458" y="1090.0" fill="#475569" font-size="15" font-weight="400">DOMAIN-SUFFIX</text><path d="M 630 960.0 Q 619 960.0 619 972.0 L 619 1067.0 Q 619 1079.0 612 1079.0 Q 619 1079.0 619 1091.0 L 619 1186.0 Q 619 1198.0 630 1198.0" fill="none" stroke="#2563eb" stroke-width="1.8" data-brace="true" /><g data-depth="3" data-rule-index="43" data-rule="DOMAIN-SUFFIX,claude.ai,AI Claude"><title>DOMAIN-SUFFIX,claude.ai,AI Claude</title><text x="644" y="975.0" fill="#172033" font-size="15" font-weight="600">#043 claude.ai</text><text x="644" y="997.0" fill="#475569" font-size="15" font-weight="400">理由：匹配本域与子域；精确例外先匹配。</text></g><g data-depth="3" data-rule-index="44" data-rule="DOMAIN-SUFFIX,claude.com,AI Claude"><title>DOMAIN-SUFFIX,claude.com,AI Claude</title><text x="644" y="1037.0" fill="#172033" font-size="15" font-weight="600">#044 claude.com</text><text x="644" y="1059.0" fill="#475569" font-size="15" font-weight="400">理由：匹配本域与子域；精确例外先匹配。</text></g><g data-depth="3" data-rule-index="45" data-rule="DOMAIN-SUFFIX,anthropic.com,AI Claude"><title>DOMAIN-SUFFIX,anthropic.com,AI Claude</title><text x="644" y="1099.0" fill="#172033" font-size="15" font-weight="600">#045 anthropic.com</text><text x="644" y="1121.0" fill="#475569" font-size="15" font-weight="400">理由：匹配本域与子域；精确例外先匹配。</text></g><g data-depth="3" data-rule-index="46" data-rule="DOMAIN-SUFFIX,claudeusercontent.com,AI Claude"><title>DOMAIN-SUFFIX,claudeusercontent.com,AI Claude</title><text x="644" y="1161.0" fill="#172033" font-size="15" font-weight="600">#046 claudeusercontent.com</text><text x="644" y="1183.0" fill="#475569" font-size="15" font-weight="400">理由：匹配本域与子域；精确例外先匹配。</text></g></g><g data-depth="2"><text x="458" y="1245.0" fill="#2563eb" font-size="17" font-weight="600">检查与资格</text><path d="M 630 1208.0 Q 619 1208.0 619 1220.0 L 619 1233.0 Q 619 1245.0 612 1245.0 Q 619 1245.0 619 1257.0 L 619 1270.0 Q 619 1282.0 630 1282.0" fill="none" stroke="#2563eb" stroke-width="1.8" data-brace="true" /><g data-depth="3"><text x="644" y="1223.0" fill="#172033" font-size="15" font-weight="600">HEAD 预期 405；每 60 秒</text><text x="644" y="1245.0" fill="#475569" font-size="15" font-weight="400">https://api.anthropic.com/v1/messages</text><text x="644" y="1267.0" fill="#475569" font-size="15" font-weight="400">匿名检查与已登录业务分别验收。</text></g></g></g><g data-depth="1"><text x="208" y="1398.0" fill="#2563eb" font-size="17" font-weight="600">AI Gemini</text><text x="208" y="1420.0" fill="#475569" font-size="15" font-weight="400">primary 优先</text><text x="208" y="1442.0" fill="#475569" font-size="15" font-weight="400">bulk 合格备用</text><text x="208" y="1464.0" fill="#475569" font-size="15" font-weight="400">已验收；倍率 ≤ 1</text><text x="208" y="1486.0" fill="#475569" font-size="15" font-weight="400">自动 fallback</text><path d="M 444 1292.0 Q 433 1292.0 433 1304.0 L 433 1430.0 Q 433 1442.0 426 1442.0 Q 433 1442.0 433 1454.0 L 433 1580.0 Q 433 1592.0 444 1592.0" fill="none" stroke="#2563eb" stroke-width="1.8" data-brace="true" /><g data-depth="2"><text x="458" y="1307.0" fill="#2563eb" font-size="17" font-weight="600">设计理由</text><path d="M 630 1292.0 Q 619 1292.0 619 1298.0 L 619 1301.0 Q 619 1307.0 612 1307.0 Q 619 1307.0 619 1313.0 L 619 1316.0 Q 619 1322.0 630 1322.0" fill="none" stroke="#2563eb" stroke-width="1.8" data-brace="true" /><g data-depth="3"><text x="644" y="1307.0" fill="#172033" font-size="15" font-weight="600">Gemini 与指定身份主机同组；共享登录主机影响其他 Google 登录。</text></g></g><g data-depth="2"><text x="458" y="1378.0" fill="#2563eb" font-size="17" font-weight="600">精确域名 · 2 条</text><text x="458" y="1400.0" fill="#475569" font-size="15" font-weight="400">DOMAIN</text><path d="M 630 1332.0 Q 619 1332.0 619 1344.0 L 619 1377.0 Q 619 1389.0 612 1389.0 Q 619 1389.0 619 1401.0 L 619 1434.0 Q 619 1446.0 630 1446.0" fill="none" stroke="#2563eb" stroke-width="1.8" data-brace="true" /><g data-depth="3" data-rule-index="47" data-rule="DOMAIN,accounts.google.com,AI Gemini"><title>DOMAIN,accounts.google.com,AI Gemini</title><text x="644" y="1347.0" fill="#172033" font-size="15" font-weight="600">#047 accounts.google.com</text><text x="644" y="1369.0" fill="#475569" font-size="15" font-weight="400">理由：指定共享登录主机使用 Gemini 组，其他 Google 登录也需复测。</text></g><g data-depth="3" data-rule-index="48" data-rule="DOMAIN,oauth2.googleapis.com,AI Gemini"><title>DOMAIN,oauth2.googleapis.com,AI Gemini</title><text x="644" y="1409.0" fill="#172033" font-size="15" font-weight="600">#048 oauth2.googleapis.com</text><text x="644" y="1431.0" fill="#475569" font-size="15" font-weight="400">理由：指定共享 OAuth 主机使用 Gemini 组，不能泛化全部 API 域。</text></g></g><g data-depth="2"><text x="458" y="1471.0" fill="#2563eb" font-size="17" font-weight="600">域名后缀 · 1 条</text><text x="458" y="1493.0" fill="#475569" font-size="15" font-weight="400">DOMAIN-SUFFIX</text><path d="M 630 1456.0 Q 619 1456.0 619 1466.4 L 619 1471.6 Q 619 1482.0 612 1482.0 Q 619 1482.0 619 1492.4 L 619 1497.6 Q 619 1508.0 630 1508.0" fill="none" stroke="#2563eb" stroke-width="1.8" data-brace="true" /><g data-depth="3" data-rule-index="49" data-rule="DOMAIN-SUFFIX,gemini.google.com,AI Gemini"><title>DOMAIN-SUFFIX,gemini.google.com,AI Gemini</title><text x="644" y="1471.0" fill="#172033" font-size="15" font-weight="600">#049 gemini.google.com</text><text x="644" y="1493.0" fill="#475569" font-size="15" font-weight="400">理由：匹配本域与子域；精确例外先匹配。</text></g></g><g data-depth="2"><text x="458" y="1555.0" fill="#2563eb" font-size="17" font-weight="600">检查与资格</text><path d="M 630 1518.0 Q 619 1518.0 619 1530.0 L 619 1543.0 Q 619 1555.0 612 1555.0 Q 619 1555.0 619 1567.0 L 619 1580.0 Q 619 1592.0 630 1592.0" fill="none" stroke="#2563eb" stroke-width="1.8" data-brace="true" /><g data-depth="3"><text x="644" y="1533.0" fill="#172033" font-size="15" font-weight="600">HEAD 预期 200；每 60 秒</text><text x="644" y="1555.0" fill="#475569" font-size="15" font-weight="400">https://gemini.google.com/app</text><text x="644" y="1577.0" fill="#475569" font-size="15" font-weight="400">匿名检查与已登录业务分别验收。</text></g></g></g><g data-depth="1"><text x="208" y="1801.0" fill="#2563eb" font-size="17" font-weight="600">AI Studio</text><text x="208" y="1823.0" fill="#475569" font-size="15" font-weight="400">primary 优先</text><text x="208" y="1845.0" fill="#475569" font-size="15" font-weight="400">bulk 合格备用</text><text x="208" y="1867.0" fill="#475569" font-size="15" font-weight="400">已验收；倍率 ≤ 1</text><text x="208" y="1889.0" fill="#475569" font-size="15" font-weight="400">自动 fallback</text><path d="M 444 1602.0 Q 433 1602.0 433 1614.0 L 433 1833.0 Q 433 1845.0 426 1845.0 Q 433 1845.0 433 1857.0 L 433 2076.0 Q 433 2088.0 444 2088.0" fill="none" stroke="#2563eb" stroke-width="1.8" data-brace="true" /><g data-depth="2"><text x="458" y="1617.0" fill="#2563eb" font-size="17" font-weight="600">设计理由</text><path d="M 630 1602.0 Q 619 1602.0 619 1608.0 L 619 1611.0 Q 619 1617.0 612 1617.0 Q 619 1617.0 619 1623.0 L 619 1626.0 Q 619 1632.0 630 1632.0" fill="none" stroke="#2563eb" stroke-width="1.8" data-brace="true" /><g data-depth="3"><text x="644" y="1617.0" fill="#172033" font-size="15" font-weight="600">Studio 与生成 API 独立于 Gemini 网页，逐业务验收。</text></g></g><g data-depth="2"><text x="458" y="1719.0" fill="#2563eb" font-size="17" font-weight="600">精确域名 · 3 条</text><text x="458" y="1741.0" fill="#475569" font-size="15" font-weight="400">DOMAIN</text><path d="M 630 1642.0 Q 619 1642.0 619 1654.0 L 619 1718.0 Q 619 1730.0 612 1730.0 Q 619 1730.0 619 1742.0 L 619 1806.0 Q 619 1818.0 630 1818.0" fill="none" stroke="#2563eb" stroke-width="1.8" data-brace="true" /><g data-depth="3" data-rule-index="50" data-rule="DOMAIN,makersuite.google.com,AI Studio"><title>DOMAIN,makersuite.google.com,AI Studio</title><text x="644" y="1657.0" fill="#172033" font-size="15" font-weight="600">#050 makersuite.google.com</text><text x="644" y="1679.0" fill="#475569" font-size="15" font-weight="400">理由：仅匹配此主机，位于普通父域之前。</text></g><g data-depth="3" data-rule-index="51" data-rule="DOMAIN,generativelanguage.googleapis.com,AI Studio"><title>DOMAIN,generativelanguage.googleapis.com,AI Studio</title><text x="644" y="1719.0" fill="#172033" font-size="15" font-weight="600">#051 generativelanguage.googleapis.com</text><text x="644" y="1741.0" fill="#475569" font-size="15" font-weight="400">理由：仅匹配此主机，位于普通父域之前。</text></g><g data-depth="3" data-rule-index="52" data-rule="DOMAIN,alkalimakersuite-pa.clients6.google.com,AI Studio"><title>DOMAIN,alkalimakersuite-pa.clients6.google.com,AI Studio</title><text x="644" y="1781.0" fill="#172033" font-size="15" font-weight="600">#052 alkalimakersuite-pa.clients6.google.com</text><text x="644" y="1803.0" fill="#475569" font-size="15" font-weight="400">理由：仅匹配此主机，位于普通父域之前。</text></g></g><g data-depth="2"><text x="458" y="1905.0" fill="#2563eb" font-size="17" font-weight="600">域名后缀 · 3 条</text><text x="458" y="1927.0" fill="#475569" font-size="15" font-weight="400">DOMAIN-SUFFIX</text><path d="M 630 1828.0 Q 619 1828.0 619 1840.0 L 619 1904.0 Q 619 1916.0 612 1916.0 Q 619 1916.0 619 1928.0 L 619 1992.0 Q 619 2004.0 630 2004.0" fill="none" stroke="#2563eb" stroke-width="1.8" data-brace="true" /><g data-depth="3" data-rule-index="53" data-rule="DOMAIN-SUFFIX,aistudio.google.com,AI Studio"><title>DOMAIN-SUFFIX,aistudio.google.com,AI Studio</title><text x="644" y="1843.0" fill="#172033" font-size="15" font-weight="600">#053 aistudio.google.com</text><text x="644" y="1865.0" fill="#475569" font-size="15" font-weight="400">理由：匹配本域与子域；精确例外先匹配。</text></g><g data-depth="3" data-rule-index="54" data-rule="DOMAIN-SUFFIX,ai.google.dev,AI Studio"><title>DOMAIN-SUFFIX,ai.google.dev,AI Studio</title><text x="644" y="1905.0" fill="#172033" font-size="15" font-weight="600">#054 ai.google.dev</text><text x="644" y="1927.0" fill="#475569" font-size="15" font-weight="400">理由：匹配本域与子域；精确例外先匹配。</text></g><g data-depth="3" data-rule-index="55" data-rule="DOMAIN-SUFFIX,generativeai.google,AI Studio"><title>DOMAIN-SUFFIX,generativeai.google,AI Studio</title><text x="644" y="1967.0" fill="#172033" font-size="15" font-weight="600">#055 generativeai.google</text><text x="644" y="1989.0" fill="#475569" font-size="15" font-weight="400">理由：匹配本域与子域；精确例外先匹配。</text></g></g><g data-depth="2"><text x="458" y="2051.0" fill="#2563eb" font-size="17" font-weight="600">检查与资格</text><path d="M 630 2014.0 Q 619 2014.0 619 2026.0 L 619 2039.0 Q 619 2051.0 612 2051.0 Q 619 2051.0 619 2063.0 L 619 2076.0 Q 619 2088.0 630 2088.0" fill="none" stroke="#2563eb" stroke-width="1.8" data-brace="true" /><g data-depth="3"><text x="644" y="2029.0" fill="#172033" font-size="15" font-weight="600">HEAD 预期 302；每 60 秒</text><text x="644" y="2051.0" fill="#475569" font-size="15" font-weight="400">https://aistudio.google.com/</text><text x="644" y="2073.0" fill="#475569" font-size="15" font-weight="400">匿名检查与已登录业务分别验收。</text></g></g></g><g data-depth="1"><text x="208" y="2328.0" fill="#2563eb" font-size="17" font-weight="600">AI Antigravity</text><text x="208" y="2350.0" fill="#475569" font-size="15" font-weight="400">primary 优先</text><text x="208" y="2372.0" fill="#475569" font-size="15" font-weight="400">bulk 合格备用</text><text x="208" y="2394.0" fill="#475569" font-size="15" font-weight="400">已验收；倍率 ≤ 1</text><text x="208" y="2416.0" fill="#475569" font-size="15" font-weight="400">自动 fallback</text><path d="M 444 2098.0 Q 433 2098.0 433 2110.0 L 433 2360.0 Q 433 2372.0 426 2372.0 Q 433 2372.0 433 2384.0 L 433 2634.0 Q 433 2646.0 444 2646.0" fill="none" stroke="#2563eb" stroke-width="1.8" data-brace="true" /><g data-depth="2"><text x="458" y="2113.0" fill="#2563eb" font-size="17" font-weight="600">设计理由</text><path d="M 630 2098.0 Q 619 2098.0 619 2104.0 L 619 2107.0 Q 619 2113.0 612 2113.0 Q 619 2113.0 619 2119.0 L 619 2122.0 Q 619 2128.0 630 2128.0" fill="none" stroke="#2563eb" stroke-width="1.8" data-brace="true" /><g data-depth="3"><text x="644" y="2113.0" fill="#172033" font-size="15" font-weight="600">精确 Cloud Code API 保持专属出口，避免地区敏感接口进入兜底。</text></g></g><g data-depth="2"><text x="458" y="2277.0" fill="#2563eb" font-size="17" font-weight="600">精确域名 · 5 条</text><text x="458" y="2299.0" fill="#475569" font-size="15" font-weight="400">DOMAIN</text><path d="M 630 2138.0 Q 619 2138.0 619 2150.0 L 619 2276.0 Q 619 2288.0 612 2288.0 Q 619 2288.0 619 2300.0 L 619 2426.0 Q 619 2438.0 630 2438.0" fill="none" stroke="#2563eb" stroke-width="1.8" data-brace="true" /><g data-depth="3" data-rule-index="56" data-rule="DOMAIN,cloudcode-pa.googleapis.com,AI Antigravity"><title>DOMAIN,cloudcode-pa.googleapis.com,AI Antigravity</title><text x="644" y="2153.0" fill="#172033" font-size="15" font-weight="600">#056 cloudcode-pa.googleapis.com</text><text x="644" y="2175.0" fill="#475569" font-size="15" font-weight="400">理由：仅匹配此主机，位于普通父域之前。</text></g><g data-depth="3" data-rule-index="57" data-rule="DOMAIN,daily-cloudcode-pa.googleapis.com,AI Antigravity"><title>DOMAIN,daily-cloudcode-pa.googleapis.com,AI Antigravity</title><text x="644" y="2215.0" fill="#172033" font-size="15" font-weight="600">#057 daily-cloudcode-pa.googleapis.com</text><text x="644" y="2237.0" fill="#475569" font-size="15" font-weight="400">理由：仅匹配此主机，位于普通父域之前。</text></g><g data-depth="3" data-rule-index="58" data-rule="DOMAIN,daily-cloudcode-pa.sandbox.googleapis.com,AI Antigravity"><title>DOMAIN,daily-cloudcode-pa.sandbox.googleapis.com,AI Antigravity</title><text x="644" y="2277.0" fill="#172033" font-size="15" font-weight="600">#058 daily-cloudcode-pa.sandbox.googleapis.com</text><text x="644" y="2299.0" fill="#475569" font-size="15" font-weight="400">理由：精确 daily API 使用 Antigravity 组，不扩大共享父域。</text></g><g data-depth="3" data-rule-index="59" data-rule="DOMAIN,cloudaicompanion.googleapis.com,AI Antigravity"><title>DOMAIN,cloudaicompanion.googleapis.com,AI Antigravity</title><text x="644" y="2339.0" fill="#172033" font-size="15" font-weight="600">#059 cloudaicompanion.googleapis.com</text><text x="644" y="2361.0" fill="#475569" font-size="15" font-weight="400">理由：仅匹配此主机，位于普通父域之前。</text></g><g data-depth="3" data-rule-index="60" data-rule="DOMAIN,codeassist.google.com,AI Antigravity"><title>DOMAIN,codeassist.google.com,AI Antigravity</title><text x="644" y="2401.0" fill="#172033" font-size="15" font-weight="600">#060 codeassist.google.com</text><text x="644" y="2423.0" fill="#475569" font-size="15" font-weight="400">理由：仅匹配此主机，位于普通父域之前。</text></g></g><g data-depth="2"><text x="458" y="2494.0" fill="#2563eb" font-size="17" font-weight="600">域名后缀 · 2 条</text><text x="458" y="2516.0" fill="#475569" font-size="15" font-weight="400">DOMAIN-SUFFIX</text><path d="M 630 2448.0 Q 619 2448.0 619 2460.0 L 619 2493.0 Q 619 2505.0 612 2505.0 Q 619 2505.0 619 2517.0 L 619 2550.0 Q 619 2562.0 630 2562.0" fill="none" stroke="#2563eb" stroke-width="1.8" data-brace="true" /><g data-depth="3" data-rule-index="61" data-rule="DOMAIN-SUFFIX,antigravity.google,AI Antigravity"><title>DOMAIN-SUFFIX,antigravity.google,AI Antigravity</title><text x="644" y="2463.0" fill="#172033" font-size="15" font-weight="600">#061 antigravity.google</text><text x="644" y="2485.0" fill="#475569" font-size="15" font-weight="400">理由：匹配本域与子域；精确例外先匹配。</text></g><g data-depth="3" data-rule-index="62" data-rule="DOMAIN-SUFFIX,antigravity-unleash.goog,AI Antigravity"><title>DOMAIN-SUFFIX,antigravity-unleash.goog,AI Antigravity</title><text x="644" y="2525.0" fill="#172033" font-size="15" font-weight="600">#062 antigravity-unleash.goog</text><text x="644" y="2547.0" fill="#475569" font-size="15" font-weight="400">理由：匹配本域与子域；精确例外先匹配。</text></g></g><g data-depth="2"><text x="458" y="2609.0" fill="#2563eb" font-size="17" font-weight="600">检查与资格</text><path d="M 630 2572.0 Q 619 2572.0 619 2584.0 L 619 2597.0 Q 619 2609.0 612 2609.0 Q 619 2609.0 619 2621.0 L 619 2634.0 Q 619 2646.0 630 2646.0" fill="none" stroke="#2563eb" stroke-width="1.8" data-brace="true" /><g data-depth="3"><text x="644" y="2587.0" fill="#172033" font-size="15" font-weight="600">HEAD 预期 200；每 60 秒</text><text x="644" y="2609.0" fill="#475569" font-size="15" font-weight="400">https://antigravity.google/</text><text x="644" y="2631.0" fill="#475569" font-size="15" font-weight="400">匿名检查与已登录业务分别验收。</text></g></g></g></g></svg>
