<svg xmlns="http://www.w3.org/2000/svg" width="1280" height="1806" viewBox="0 0 1280 1806" role="img" aria-labelledby="title description" font-family="Arial, Microsoft YaHei, sans-serif"><title id="title">AI 搜索与聚合 · 完整规则</title><desc id="description">15 条规则；编号对应实际首匹配顺序；大括号只表示结构包含。从左向右的大括号表示整体与局部的包含关系。</desc><rect x="0" y="0" width="1280" height="1806" fill="#ffffff" /><text x="28" y="32" fill="#172033" font-size="23" font-weight="600">AI 搜索与聚合 · 完整规则</text><text x="28" y="58" fill="#475569" font-size="14" font-weight="400">15 条规则；编号对应实际首匹配顺序；大括号只表示结构包含</text><text x="28" y="91" fill="#64748b" font-size="13" font-weight="400">整体</text><text x="208" y="91" fill="#64748b" font-size="13" font-weight="400">分类 / 服务组</text><text x="458" y="91" fill="#64748b" font-size="13" font-weight="400">结构拆解</text><text x="644" y="91" fill="#64748b" font-size="13" font-weight="400">完整规则 / 设计理由</text><g data-depth="0"><text x="28" y="946.0" fill="#2563eb" font-size="17" font-weight="600">AI 搜索与聚合</text><path d="M 198 114.0 Q 187 114.0 187 126.0 L 187 934.0 Q 187 946.0 180 946.0 Q 187 946.0 187 958.0 L 187 1766.0 Q 187 1778.0 198 1778.0" fill="none" stroke="#2563eb" stroke-width="1.8" data-brace="true" /><g data-depth="1"><text x="208" y="220.0" fill="#2563eb" font-size="17" font-weight="600">AI Perplexity</text><text x="208" y="242.0" fill="#475569" font-size="15" font-weight="400">primary 优先</text><text x="208" y="264.0" fill="#475569" font-size="15" font-weight="400">bulk 合格备用</text><text x="208" y="286.0" fill="#475569" font-size="15" font-weight="400">已验收；倍率 ≤ 1</text><text x="208" y="308.0" fill="#475569" font-size="15" font-weight="400">自动 fallback</text><path d="M 444 114.0 Q 433 114.0 433 126.0 L 433 252.0 Q 433 264.0 426 264.0 Q 433 264.0 433 276.0 L 433 402.0 Q 433 414.0 444 414.0" fill="none" stroke="#2563eb" stroke-width="1.8" data-brace="true" /><g data-depth="2"><text x="458" y="129.0" fill="#2563eb" font-size="17" font-weight="600">设计理由</text><path d="M 630 114.0 Q 619 114.0 619 120.0 L 619 123.0 Q 619 129.0 612 129.0 Q 619 129.0 619 135.0 L 619 138.0 Q 619 144.0 630 144.0" fill="none" stroke="#2563eb" stroke-width="1.8" data-brace="true" /><g data-depth="3"><text x="644" y="129.0" fill="#172033" font-size="15" font-weight="600">平台、API 与指定资源租户同组，不扩大共享 CDN 父域。</text></g></g><g data-depth="2"><text x="458" y="169.0" fill="#2563eb" font-size="17" font-weight="600">精确域名 · 1 条</text><text x="458" y="191.0" fill="#475569" font-size="15" font-weight="400">DOMAIN</text><path d="M 630 154.0 Q 619 154.0 619 164.4 L 619 169.6 Q 619 180.0 612 180.0 Q 619 180.0 619 190.4 L 619 195.6 Q 619 206.0 630 206.0" fill="none" stroke="#2563eb" stroke-width="1.8" data-brace="true" /><g data-depth="3" data-rule-index="69" data-rule="DOMAIN,pplx-res.cloudinary.com,AI Perplexity"><title>DOMAIN,pplx-res.cloudinary.com,AI Perplexity</title><text x="644" y="169.0" fill="#172033" font-size="15" font-weight="600">#069 pplx-res.cloudinary.com</text><text x="644" y="191.0" fill="#475569" font-size="15" font-weight="400">理由：仅此资源租户归入 Perplexity，不扩大 cloudinary.com。</text></g></g><g data-depth="2"><text x="458" y="262.0" fill="#2563eb" font-size="17" font-weight="600">域名后缀 · 2 条</text><text x="458" y="284.0" fill="#475569" font-size="15" font-weight="400">DOMAIN-SUFFIX</text><path d="M 630 216.0 Q 619 216.0 619 228.0 L 619 261.0 Q 619 273.0 612 273.0 Q 619 273.0 619 285.0 L 619 318.0 Q 619 330.0 630 330.0" fill="none" stroke="#2563eb" stroke-width="1.8" data-brace="true" /><g data-depth="3" data-rule-index="70" data-rule="DOMAIN-SUFFIX,perplexity.ai,AI Perplexity"><title>DOMAIN-SUFFIX,perplexity.ai,AI Perplexity</title><text x="644" y="231.0" fill="#172033" font-size="15" font-weight="600">#070 perplexity.ai</text><text x="644" y="253.0" fill="#475569" font-size="15" font-weight="400">理由：匹配本域与子域；精确例外先匹配。</text></g><g data-depth="3" data-rule-index="71" data-rule="DOMAIN-SUFFIX,pplx.ai,AI Perplexity"><title>DOMAIN-SUFFIX,pplx.ai,AI Perplexity</title><text x="644" y="293.0" fill="#172033" font-size="15" font-weight="600">#071 pplx.ai</text><text x="644" y="315.0" fill="#475569" font-size="15" font-weight="400">理由：匹配本域与子域；精确例外先匹配。</text></g></g><g data-depth="2"><text x="458" y="377.0" fill="#2563eb" font-size="17" font-weight="600">检查与资格</text><path d="M 630 340.0 Q 619 340.0 619 352.0 L 619 365.0 Q 619 377.0 612 377.0 Q 619 377.0 619 389.0 L 619 402.0 Q 619 414.0 630 414.0" fill="none" stroke="#2563eb" stroke-width="1.8" data-brace="true" /><g data-depth="3"><text x="644" y="355.0" fill="#172033" font-size="15" font-weight="600">HEAD 预期 401；每 180 秒</text><text x="644" y="377.0" fill="#475569" font-size="15" font-weight="400">https://api.perplexity.ai/chat/completions</text><text x="644" y="399.0" fill="#475569" font-size="15" font-weight="400">匿名检查与已登录业务分别验收。</text></g></g></g><g data-depth="1"><text x="208" y="499.0" fill="#2563eb" font-size="17" font-weight="600">AI Grok</text><text x="208" y="521.0" fill="#475569" font-size="15" font-weight="400">primary 优先</text><text x="208" y="543.0" fill="#475569" font-size="15" font-weight="400">bulk 合格备用</text><text x="208" y="565.0" fill="#475569" font-size="15" font-weight="400">已验收；倍率 ≤ 1</text><text x="208" y="587.0" fill="#475569" font-size="15" font-weight="400">自动 fallback</text><path d="M 444 424.0 Q 433 424.0 433 436.0 L 433 531.0 Q 433 543.0 426 543.0 Q 433 543.0 433 555.0 L 433 650.0 Q 433 662.0 444 662.0" fill="none" stroke="#2563eb" stroke-width="1.8" data-brace="true" /><g data-depth="2"><text x="458" y="439.0" fill="#2563eb" font-size="17" font-weight="600">设计理由</text><path d="M 630 424.0 Q 619 424.0 619 430.0 L 619 433.0 Q 619 439.0 612 439.0 Q 619 439.0 619 445.0 L 619 448.0 Q 619 454.0 630 454.0" fill="none" stroke="#2563eb" stroke-width="1.8" data-brace="true" /><g data-depth="3"><text x="644" y="439.0" fill="#172033" font-size="15" font-weight="600">Grok 与 x.ai 是 AI，X 页面与视频分别走普通业务。</text></g></g><g data-depth="2"><text x="458" y="510.0" fill="#2563eb" font-size="17" font-weight="600">域名后缀 · 2 条</text><text x="458" y="532.0" fill="#475569" font-size="15" font-weight="400">DOMAIN-SUFFIX</text><path d="M 630 464.0 Q 619 464.0 619 476.0 L 619 509.0 Q 619 521.0 612 521.0 Q 619 521.0 619 533.0 L 619 566.0 Q 619 578.0 630 578.0" fill="none" stroke="#2563eb" stroke-width="1.8" data-brace="true" /><g data-depth="3" data-rule-index="73" data-rule="DOMAIN-SUFFIX,grok.com,AI Grok"><title>DOMAIN-SUFFIX,grok.com,AI Grok</title><text x="644" y="479.0" fill="#172033" font-size="15" font-weight="600">#073 grok.com</text><text x="644" y="501.0" fill="#475569" font-size="15" font-weight="400">理由：匹配本域与子域；精确例外先匹配。</text></g><g data-depth="3" data-rule-index="74" data-rule="DOMAIN-SUFFIX,x.ai,AI Grok"><title>DOMAIN-SUFFIX,x.ai,AI Grok</title><text x="644" y="541.0" fill="#172033" font-size="15" font-weight="600">#074 x.ai</text><text x="644" y="563.0" fill="#475569" font-size="15" font-weight="400">理由：匹配本域与子域；精确例外先匹配。</text></g></g><g data-depth="2"><text x="458" y="625.0" fill="#2563eb" font-size="17" font-weight="600">检查与资格</text><path d="M 630 588.0 Q 619 588.0 619 600.0 L 619 613.0 Q 619 625.0 612 625.0 Q 619 625.0 619 637.0 L 619 650.0 Q 619 662.0 630 662.0" fill="none" stroke="#2563eb" stroke-width="1.8" data-brace="true" /><g data-depth="3"><text x="644" y="603.0" fill="#172033" font-size="15" font-weight="600">HEAD 预期 401；每 180 秒</text><text x="644" y="625.0" fill="#475569" font-size="15" font-weight="400">https://api.x.ai/v1/models</text><text x="644" y="647.0" fill="#475569" font-size="15" font-weight="400">匿名检查与已登录业务分别验收。</text></g></g></g><g data-depth="1"><text x="208" y="902.0" fill="#2563eb" font-size="17" font-weight="600">AI Microsoft Copilot</text><text x="208" y="924.0" fill="#475569" font-size="15" font-weight="400">primary 优先</text><text x="208" y="946.0" fill="#475569" font-size="15" font-weight="400">bulk 合格备用</text><text x="208" y="968.0" fill="#475569" font-size="15" font-weight="400">已验收；倍率 ≤ 1</text><text x="208" y="990.0" fill="#475569" font-size="15" font-weight="400">自动 fallback</text><path d="M 444 672.0 Q 433 672.0 433 684.0 L 433 934.0 Q 433 946.0 426 946.0 Q 433 946.0 433 958.0 L 433 1208.0 Q 433 1220.0 444 1220.0" fill="none" stroke="#2563eb" stroke-width="1.8" data-brace="true" /><g data-depth="2"><text x="458" y="687.0" fill="#2563eb" font-size="17" font-weight="600">设计理由</text><path d="M 630 672.0 Q 619 672.0 619 678.0 L 619 681.0 Q 619 687.0 612 687.0 Q 619 687.0 619 693.0 L 619 696.0 Q 619 702.0 630 702.0" fill="none" stroke="#2563eb" stroke-width="1.8" data-brace="true" /><g data-depth="3"><text x="644" y="687.0" fill="#172033" font-size="15" font-weight="600">只归类 Copilot 与指定 Bing API，不扩大到全部 Microsoft 域。</text></g></g><g data-depth="2"><text x="458" y="851.0" fill="#2563eb" font-size="17" font-weight="600">精确域名 · 5 条</text><text x="458" y="873.0" fill="#475569" font-size="15" font-weight="400">DOMAIN</text><path d="M 630 712.0 Q 619 712.0 619 724.0 L 619 850.0 Q 619 862.0 612 862.0 Q 619 862.0 619 874.0 L 619 1000.0 Q 619 1012.0 630 1012.0" fill="none" stroke="#2563eb" stroke-width="1.8" data-brace="true" /><g data-depth="3" data-rule-index="76" data-rule="DOMAIN,sydney.bing.com,AI Microsoft Copilot"><title>DOMAIN,sydney.bing.com,AI Microsoft Copilot</title><text x="644" y="727.0" fill="#172033" font-size="15" font-weight="600">#076 sydney.bing.com</text><text x="644" y="749.0" fill="#475569" font-size="15" font-weight="400">理由：仅匹配此主机，位于普通父域之前。</text></g><g data-depth="3" data-rule-index="77" data-rule="DOMAIN,edgeservices.bing.com,AI Microsoft Copilot"><title>DOMAIN,edgeservices.bing.com,AI Microsoft Copilot</title><text x="644" y="789.0" fill="#172033" font-size="15" font-weight="600">#077 edgeservices.bing.com</text><text x="644" y="811.0" fill="#475569" font-size="15" font-weight="400">理由：仅匹配此主机，位于普通父域之前。</text></g><g data-depth="3" data-rule-index="78" data-rule="DOMAIN,services.bingapis.com,AI Microsoft Copilot"><title>DOMAIN,services.bingapis.com,AI Microsoft Copilot</title><text x="644" y="851.0" fill="#172033" font-size="15" font-weight="600">#078 services.bingapis.com</text><text x="644" y="873.0" fill="#475569" font-size="15" font-weight="400">理由：仅匹配此主机，位于普通父域之前。</text></g><g data-depth="3" data-rule-index="79" data-rule="DOMAIN,gateway.bingviz.microsoft.net,AI Microsoft Copilot"><title>DOMAIN,gateway.bingviz.microsoft.net,AI Microsoft Copilot</title><text x="644" y="913.0" fill="#172033" font-size="15" font-weight="600">#079 gateway.bingviz.microsoft.net</text><text x="644" y="935.0" fill="#475569" font-size="15" font-weight="400">理由：仅匹配此主机，位于普通父域之前。</text></g><g data-depth="3" data-rule-index="80" data-rule="DOMAIN,gateway.bingviz.microsoftapp.net,AI Microsoft Copilot"><title>DOMAIN,gateway.bingviz.microsoftapp.net,AI Microsoft Copilot</title><text x="644" y="975.0" fill="#172033" font-size="15" font-weight="600">#080 gateway.bingviz.microsoftapp.net</text><text x="644" y="997.0" fill="#475569" font-size="15" font-weight="400">理由：仅匹配此主机，位于普通父域之前。</text></g></g><g data-depth="2"><text x="458" y="1068.0" fill="#2563eb" font-size="17" font-weight="600">域名后缀 · 2 条</text><text x="458" y="1090.0" fill="#475569" font-size="15" font-weight="400">DOMAIN-SUFFIX</text><path d="M 630 1022.0 Q 619 1022.0 619 1034.0 L 619 1067.0 Q 619 1079.0 612 1079.0 Q 619 1079.0 619 1091.0 L 619 1124.0 Q 619 1136.0 630 1136.0" fill="none" stroke="#2563eb" stroke-width="1.8" data-brace="true" /><g data-depth="3" data-rule-index="81" data-rule="DOMAIN-SUFFIX,copilot.com,AI Microsoft Copilot"><title>DOMAIN-SUFFIX,copilot.com,AI Microsoft Copilot</title><text x="644" y="1037.0" fill="#172033" font-size="15" font-weight="600">#081 copilot.com</text><text x="644" y="1059.0" fill="#475569" font-size="15" font-weight="400">理由：匹配本域与子域；精确例外先匹配。</text></g><g data-depth="3" data-rule-index="82" data-rule="DOMAIN-SUFFIX,copilot.microsoft.com,AI Microsoft Copilot"><title>DOMAIN-SUFFIX,copilot.microsoft.com,AI Microsoft Copilot</title><text x="644" y="1099.0" fill="#172033" font-size="15" font-weight="600">#082 copilot.microsoft.com</text><text x="644" y="1121.0" fill="#475569" font-size="15" font-weight="400">理由：匹配本域与子域；精确例外先匹配。</text></g></g><g data-depth="2"><text x="458" y="1183.0" fill="#2563eb" font-size="17" font-weight="600">检查与资格</text><path d="M 630 1146.0 Q 619 1146.0 619 1158.0 L 619 1171.0 Q 619 1183.0 612 1183.0 Q 619 1183.0 619 1195.0 L 619 1208.0 Q 619 1220.0 630 1220.0" fill="none" stroke="#2563eb" stroke-width="1.8" data-brace="true" /><g data-depth="3"><text x="644" y="1161.0" fill="#172033" font-size="15" font-weight="600">HEAD 预期 200；每 180 秒</text><text x="644" y="1183.0" fill="#475569" font-size="15" font-weight="400">https://copilot.microsoft.com/</text><text x="644" y="1205.0" fill="#475569" font-size="15" font-weight="400">匿名检查与已登录业务分别验收。</text></g></g></g><g data-depth="1"><text x="208" y="1274.0" fill="#2563eb" font-size="17" font-weight="600">AI You</text><text x="208" y="1296.0" fill="#475569" font-size="15" font-weight="400">primary 优先</text><text x="208" y="1318.0" fill="#475569" font-size="15" font-weight="400">bulk 合格备用</text><text x="208" y="1340.0" fill="#475569" font-size="15" font-weight="400">已验收；倍率 ≤ 1</text><text x="208" y="1362.0" fill="#475569" font-size="15" font-weight="400">自动 fallback</text><path d="M 444 1230.0 Q 433 1230.0 433 1242.0 L 433 1306.0 Q 433 1318.0 426 1318.0 Q 433 1318.0 433 1330.0 L 433 1394.0 Q 433 1406.0 444 1406.0" fill="none" stroke="#2563eb" stroke-width="1.8" data-brace="true" /><g data-depth="2"><text x="458" y="1245.0" fill="#2563eb" font-size="17" font-weight="600">设计理由</text><path d="M 630 1230.0 Q 619 1230.0 619 1236.0 L 619 1239.0 Q 619 1245.0 612 1245.0 Q 619 1245.0 619 1251.0 L 619 1254.0 Q 619 1260.0 630 1260.0" fill="none" stroke="#2563eb" stroke-width="1.8" data-brace="true" /><g data-depth="3"><text x="644" y="1245.0" fill="#172033" font-size="15" font-weight="600">搜索与对话平台独立服务资格，首页结果不替代业务。</text></g></g><g data-depth="2"><text x="458" y="1285.0" fill="#2563eb" font-size="17" font-weight="600">域名后缀 · 1 条</text><text x="458" y="1307.0" fill="#475569" font-size="15" font-weight="400">DOMAIN-SUFFIX</text><path d="M 630 1270.0 Q 619 1270.0 619 1280.4 L 619 1285.6 Q 619 1296.0 612 1296.0 Q 619 1296.0 619 1306.4 L 619 1311.6 Q 619 1322.0 630 1322.0" fill="none" stroke="#2563eb" stroke-width="1.8" data-brace="true" /><g data-depth="3" data-rule-index="87" data-rule="DOMAIN-SUFFIX,you.com,AI You"><title>DOMAIN-SUFFIX,you.com,AI You</title><text x="644" y="1285.0" fill="#172033" font-size="15" font-weight="600">#087 you.com</text><text x="644" y="1307.0" fill="#475569" font-size="15" font-weight="400">理由：匹配本域与子域；精确例外先匹配。</text></g></g><g data-depth="2"><text x="458" y="1369.0" fill="#2563eb" font-size="17" font-weight="600">检查与资格</text><path d="M 630 1332.0 Q 619 1332.0 619 1344.0 L 619 1357.0 Q 619 1369.0 612 1369.0 Q 619 1369.0 619 1381.0 L 619 1394.0 Q 619 1406.0 630 1406.0" fill="none" stroke="#2563eb" stroke-width="1.8" data-brace="true" /><g data-depth="3"><text x="644" y="1347.0" fill="#172033" font-size="15" font-weight="600">HEAD 预期 200；每 180 秒</text><text x="644" y="1369.0" fill="#475569" font-size="15" font-weight="400">https://you.com/</text><text x="644" y="1391.0" fill="#475569" font-size="15" font-weight="400">匿名检查与已登录业务分别验收。</text></g></g></g><g data-depth="1"><text x="208" y="1460.0" fill="#2563eb" font-size="17" font-weight="600">AI Kagi</text><text x="208" y="1482.0" fill="#475569" font-size="15" font-weight="400">primary 优先</text><text x="208" y="1504.0" fill="#475569" font-size="15" font-weight="400">bulk 合格备用</text><text x="208" y="1526.0" fill="#475569" font-size="15" font-weight="400">已验收；倍率 ≤ 1</text><text x="208" y="1548.0" fill="#475569" font-size="15" font-weight="400">自动 fallback</text><path d="M 444 1416.0 Q 433 1416.0 433 1428.0 L 433 1492.0 Q 433 1504.0 426 1504.0 Q 433 1504.0 433 1516.0 L 433 1580.0 Q 433 1592.0 444 1592.0" fill="none" stroke="#2563eb" stroke-width="1.8" data-brace="true" /><g data-depth="2"><text x="458" y="1431.0" fill="#2563eb" font-size="17" font-weight="600">设计理由</text><path d="M 630 1416.0 Q 619 1416.0 619 1422.0 L 619 1425.0 Q 619 1431.0 612 1431.0 Q 619 1431.0 619 1437.0 L 619 1440.0 Q 619 1446.0 630 1446.0" fill="none" stroke="#2563eb" stroke-width="1.8" data-brace="true" /><g data-depth="3"><text x="644" y="1431.0" fill="#172033" font-size="15" font-weight="600">搜索平台独立检查，账号访问与实际查询另验收。</text></g></g><g data-depth="2"><text x="458" y="1471.0" fill="#2563eb" font-size="17" font-weight="600">域名后缀 · 1 条</text><text x="458" y="1493.0" fill="#475569" font-size="15" font-weight="400">DOMAIN-SUFFIX</text><path d="M 630 1456.0 Q 619 1456.0 619 1466.4 L 619 1471.6 Q 619 1482.0 612 1482.0 Q 619 1482.0 619 1492.4 L 619 1497.6 Q 619 1508.0 630 1508.0" fill="none" stroke="#2563eb" stroke-width="1.8" data-brace="true" /><g data-depth="3" data-rule-index="88" data-rule="DOMAIN-SUFFIX,kagi.com,AI Kagi"><title>DOMAIN-SUFFIX,kagi.com,AI Kagi</title><text x="644" y="1471.0" fill="#172033" font-size="15" font-weight="600">#088 kagi.com</text><text x="644" y="1493.0" fill="#475569" font-size="15" font-weight="400">理由：匹配本域与子域；精确例外先匹配。</text></g></g><g data-depth="2"><text x="458" y="1555.0" fill="#2563eb" font-size="17" font-weight="600">检查与资格</text><path d="M 630 1518.0 Q 619 1518.0 619 1530.0 L 619 1543.0 Q 619 1555.0 612 1555.0 Q 619 1555.0 619 1567.0 L 619 1580.0 Q 619 1592.0 630 1592.0" fill="none" stroke="#2563eb" stroke-width="1.8" data-brace="true" /><g data-depth="3"><text x="644" y="1533.0" fill="#172033" font-size="15" font-weight="600">HEAD 预期 200；每 180 秒</text><text x="644" y="1555.0" fill="#475569" font-size="15" font-weight="400">https://kagi.com/</text><text x="644" y="1577.0" fill="#475569" font-size="15" font-weight="400">匿名检查与已登录业务分别验收。</text></g></g></g><g data-depth="1"><text x="208" y="1646.0" fill="#2563eb" font-size="17" font-weight="600">AI Character</text><text x="208" y="1668.0" fill="#475569" font-size="15" font-weight="400">primary 优先</text><text x="208" y="1690.0" fill="#475569" font-size="15" font-weight="400">bulk 合格备用</text><text x="208" y="1712.0" fill="#475569" font-size="15" font-weight="400">已验收；倍率 ≤ 1</text><text x="208" y="1734.0" fill="#475569" font-size="15" font-weight="400">自动 fallback</text><path d="M 444 1602.0 Q 433 1602.0 433 1614.0 L 433 1678.0 Q 433 1690.0 426 1690.0 Q 433 1690.0 433 1702.0 L 433 1766.0 Q 433 1778.0 444 1778.0" fill="none" stroke="#2563eb" stroke-width="1.8" data-brace="true" /><g data-depth="2"><text x="458" y="1617.0" fill="#2563eb" font-size="17" font-weight="600">设计理由</text><path d="M 630 1602.0 Q 619 1602.0 619 1608.0 L 619 1611.0 Q 619 1617.0 612 1617.0 Q 619 1617.0 619 1623.0 L 619 1626.0 Q 619 1632.0 630 1632.0" fill="none" stroke="#2563eb" stroke-width="1.8" data-brace="true" /><g data-depth="3"><text x="644" y="1617.0" fill="#172033" font-size="15" font-weight="600">独立会话业务逐项验收，不复用其他服务的资格结论。</text></g></g><g data-depth="2"><text x="458" y="1657.0" fill="#2563eb" font-size="17" font-weight="600">域名后缀 · 1 条</text><text x="458" y="1679.0" fill="#475569" font-size="15" font-weight="400">DOMAIN-SUFFIX</text><path d="M 630 1642.0 Q 619 1642.0 619 1652.4 L 619 1657.6 Q 619 1668.0 612 1668.0 Q 619 1668.0 619 1678.4 L 619 1683.6 Q 619 1694.0 630 1694.0" fill="none" stroke="#2563eb" stroke-width="1.8" data-brace="true" /><g data-depth="3" data-rule-index="83" data-rule="DOMAIN-SUFFIX,character.ai,AI Character"><title>DOMAIN-SUFFIX,character.ai,AI Character</title><text x="644" y="1657.0" fill="#172033" font-size="15" font-weight="600">#083 character.ai</text><text x="644" y="1679.0" fill="#475569" font-size="15" font-weight="400">理由：匹配本域与子域；精确例外先匹配。</text></g></g><g data-depth="2"><text x="458" y="1741.0" fill="#2563eb" font-size="17" font-weight="600">检查与资格</text><path d="M 630 1704.0 Q 619 1704.0 619 1716.0 L 619 1729.0 Q 619 1741.0 612 1741.0 Q 619 1741.0 619 1753.0 L 619 1766.0 Q 619 1778.0 630 1778.0" fill="none" stroke="#2563eb" stroke-width="1.8" data-brace="true" /><g data-depth="3"><text x="644" y="1719.0" fill="#172033" font-size="15" font-weight="600">HEAD 预期 200；每 180 秒</text><text x="644" y="1741.0" fill="#475569" font-size="15" font-weight="400">https://character.ai/</text><text x="644" y="1763.0" fill="#475569" font-size="15" font-weight="400">匿名检查与已登录业务分别验收。</text></g></g></g></g></svg>
